<svg xmlns="http://www.w3.org/2000/svg" viewBox="0 0 512 512">
  <defs>
    <linearGradient id="gradient" x1="0%" y1="0%" x2="100%" y2="100%">
      <stop offset="0%" stop-color="#6366f1"/>
      <stop offset="100%" stop-color="#8b5cf6"/>
    </linearGradient>
  </defs>
  <rect width="512" height="512" rx="100" fill="url(#gradient)"/>
  <path d="M256 140c-64 0-116 52-116 116s52 116 116 116c32 0 61-13 82-34l-24-24c-15 15-35 24-58 24-46 0-82-36-82-82s36-82 82-82c23 0 43 9 58 24l24-24c-21-21-50-34-82-34z" fill="white" opacity="0.6"/>
  <path d="M256 180c-42 0-76 34-76 76s34 76 76 76 76-34 76-76-34-76-76-76zm0 116c-22 0-40-18-40-40s18-40 40-40 40 18 40 40-18 40-40 40z" fill="white"/>
  <path d="M340 220h-60v-60h-48v60h-60v48h60v60h48v-60h60v-48z" fill="white" opacity="0.3"/>
</svg>
